<mxfile host="app.diagrams.net" modified="2024-03-28T16:57:52.810Z" agent="Mozilla/5.0 (Windows NT 10.0; Win64; x64) AppleWebKit/537.36 (KHTML, like Gecko) Chrome/123.0.0.0 Safari/537.36" etag="Yj0o3-GFZDJeh2GlKsF_" version="24.0.1" type="device">
  <diagram id="C5RBs43oDa-KdzZeNtuy" name="Page-1">
    <mxGraphModel dx="794" dy="1456" grid="1" gridSize="10" guides="1" tooltips="1" connect="1" arrows="1" fold="1" page="1" pageScale="1" pageWidth="827" pageHeight="1169" math="0" shadow="0">
      <root>
        <mxCell id="WIyWlLk6GJQsqaUBKTNV-0" />
        <mxCell id="WIyWlLk6GJQsqaUBKTNV-1" parent="WIyWlLk6GJQsqaUBKTNV-0" />
        <mxCell id="IJf_oxvMi_yI0q4zsniB-27" value="Passengers" style="text;strokeColor=none;fillColor=none;html=1;fontSize=24;fontStyle=1;verticalAlign=middle;align=center;" vertex="1" parent="WIyWlLk6GJQsqaUBKTNV-1">
          <mxGeometry x="140" y="420" width="100" height="40" as="geometry" />
        </mxCell>
        <mxCell id="IJf_oxvMi_yI0q4zsniB-41" value="" style="shape=table;html=1;whiteSpace=wrap;startSize=0;container=1;collapsible=0;childLayout=tableLayout;columnLines=0;rowLines=0;fontSize=16;strokeColor=default;" vertex="1" parent="WIyWlLk6GJQsqaUBKTNV-1">
          <mxGeometry x="140" y="460" width="120" height="40" as="geometry" />
        </mxCell>
        <mxCell id="IJf_oxvMi_yI0q4zsniB-42" value="" style="shape=tableRow;horizontal=0;startSize=0;swimlaneHead=0;swimlaneBody=0;top=0;left=0;bottom=0;right=0;collapsible=0;dropTarget=0;fillColor=none;points=[[0,0.5],[1,0.5]];portConstraint=eastwest;fontSize=16;strokeColor=inherit;" vertex="1" parent="IJf_oxvMi_yI0q4zsniB-41">
          <mxGeometry width="120" height="40" as="geometry" />
        </mxCell>
        <mxCell id="IJf_oxvMi_yI0q4zsniB-43" value="&lt;u&gt;DOB&lt;/u&gt;" style="shape=partialRectangle;html=1;whiteSpace=wrap;connectable=0;fillColor=none;top=0;left=0;bottom=0;right=0;overflow=hidden;fontSize=12;strokeColor=inherit;" vertex="1" parent="IJf_oxvMi_yI0q4zsniB-42">
          <mxGeometry width="60" height="40" as="geometry">
            <mxRectangle width="60" height="40" as="alternateBounds" />
          </mxGeometry>
        </mxCell>
        <mxCell id="IJf_oxvMi_yI0q4zsniB-44" value="&lt;u&gt;Name&lt;/u&gt;" style="shape=partialRectangle;html=1;whiteSpace=wrap;connectable=0;fillColor=none;top=0;left=0;bottom=0;right=0;overflow=hidden;fontSize=12;strokeColor=inherit;" vertex="1" parent="IJf_oxvMi_yI0q4zsniB-42">
          <mxGeometry x="60" width="60" height="40" as="geometry">
            <mxRectangle width="60" height="40" as="alternateBounds" />
          </mxGeometry>
        </mxCell>
        <mxCell id="IJf_oxvMi_yI0q4zsniB-60" value="Starships" style="text;strokeColor=none;fillColor=none;html=1;fontSize=24;fontStyle=1;verticalAlign=middle;align=center;" vertex="1" parent="WIyWlLk6GJQsqaUBKTNV-1">
          <mxGeometry x="140" y="580" width="100" height="40" as="geometry" />
        </mxCell>
        <mxCell id="IJf_oxvMi_yI0q4zsniB-61" value="" style="shape=table;html=1;whiteSpace=wrap;startSize=0;container=1;collapsible=0;childLayout=tableLayout;columnLines=0;rowLines=0;fontSize=16;strokeColor=default;" vertex="1" parent="WIyWlLk6GJQsqaUBKTNV-1">
          <mxGeometry x="140" y="620" width="710" height="40" as="geometry" />
        </mxCell>
        <mxCell id="IJf_oxvMi_yI0q4zsniB-62" value="" style="shape=tableRow;horizontal=0;startSize=0;swimlaneHead=0;swimlaneBody=0;top=0;left=0;bottom=0;right=0;collapsible=0;dropTarget=0;fillColor=none;points=[[0,0.5],[1,0.5]];portConstraint=eastwest;fontSize=16;strokeColor=inherit;" vertex="1" parent="IJf_oxvMi_yI0q4zsniB-61">
          <mxGeometry width="710" height="40" as="geometry" />
        </mxCell>
        <mxCell id="IJf_oxvMi_yI0q4zsniB-63" value="&lt;u&gt;Name&lt;/u&gt;" style="shape=partialRectangle;html=1;whiteSpace=wrap;connectable=0;fillColor=none;top=0;left=0;bottom=0;right=0;overflow=hidden;fontSize=12;strokeColor=inherit;" vertex="1" parent="IJf_oxvMi_yI0q4zsniB-62">
          <mxGeometry width="56" height="40" as="geometry">
            <mxRectangle width="56" height="40" as="alternateBounds" />
          </mxGeometry>
        </mxCell>
        <mxCell id="IJf_oxvMi_yI0q4zsniB-64" value="&lt;u&gt;Serial_Number&lt;/u&gt;" style="shape=partialRectangle;html=1;whiteSpace=wrap;connectable=0;fillColor=none;top=0;left=0;bottom=0;right=0;overflow=hidden;fontSize=12;strokeColor=inherit;" vertex="1" parent="IJf_oxvMi_yI0q4zsniB-62">
          <mxGeometry x="56" width="114" height="40" as="geometry">
            <mxRectangle width="114" height="40" as="alternateBounds" />
          </mxGeometry>
        </mxCell>
        <mxCell id="IJf_oxvMi_yI0q4zsniB-65" value="Min_Crew" style="shape=partialRectangle;html=1;whiteSpace=wrap;connectable=0;fillColor=none;top=0;left=0;bottom=0;right=0;overflow=hidden;fontSize=12;strokeColor=inherit;" vertex="1" parent="IJf_oxvMi_yI0q4zsniB-62">
          <mxGeometry x="170" width="90" height="40" as="geometry">
            <mxRectangle width="90" height="40" as="alternateBounds" />
          </mxGeometry>
        </mxCell>
        <mxCell id="IJf_oxvMi_yI0q4zsniB-73" value="Max_Pass_Cap" style="shape=partialRectangle;html=1;whiteSpace=wrap;connectable=0;fillColor=none;top=0;left=0;bottom=0;right=0;overflow=hidden;fontSize=12;strokeColor=inherit;" vertex="1" parent="IJf_oxvMi_yI0q4zsniB-62">
          <mxGeometry x="260" width="120" height="40" as="geometry">
            <mxRectangle width="120" height="40" as="alternateBounds" />
          </mxGeometry>
        </mxCell>
        <mxCell id="IJf_oxvMi_yI0q4zsniB-74" value="Last_Service_Date" style="shape=partialRectangle;html=1;whiteSpace=wrap;connectable=0;fillColor=none;top=0;left=0;bottom=0;right=0;overflow=hidden;fontSize=12;strokeColor=inherit;" vertex="1" parent="IJf_oxvMi_yI0q4zsniB-62">
          <mxGeometry x="380" width="120" height="40" as="geometry">
            <mxRectangle width="120" height="40" as="alternateBounds" />
          </mxGeometry>
        </mxCell>
        <mxCell id="IJf_oxvMi_yI0q4zsniB-75" value="Next_Service_Date" style="shape=partialRectangle;html=1;whiteSpace=wrap;connectable=0;fillColor=none;top=0;left=0;bottom=0;right=0;overflow=hidden;fontSize=12;strokeColor=inherit;" vertex="1" parent="IJf_oxvMi_yI0q4zsniB-62">
          <mxGeometry x="500" width="210" height="40" as="geometry">
            <mxRectangle width="210" height="40" as="alternateBounds" />
          </mxGeometry>
        </mxCell>
        <mxCell id="IJf_oxvMi_yI0q4zsniB-80" value="Pilots" style="text;strokeColor=none;fillColor=none;html=1;fontSize=24;fontStyle=1;verticalAlign=middle;align=center;" vertex="1" parent="WIyWlLk6GJQsqaUBKTNV-1">
          <mxGeometry x="140" y="760" width="100" height="40" as="geometry" />
        </mxCell>
        <mxCell id="IJf_oxvMi_yI0q4zsniB-81" value="" style="shape=table;html=1;whiteSpace=wrap;startSize=0;container=1;collapsible=0;childLayout=tableLayout;columnLines=0;rowLines=0;fontSize=16;strokeColor=default;" vertex="1" parent="WIyWlLk6GJQsqaUBKTNV-1">
          <mxGeometry x="140" y="800" width="380" height="40" as="geometry" />
        </mxCell>
        <mxCell id="IJf_oxvMi_yI0q4zsniB-82" value="" style="shape=tableRow;horizontal=0;startSize=0;swimlaneHead=0;swimlaneBody=0;top=0;left=0;bottom=0;right=0;collapsible=0;dropTarget=0;fillColor=none;points=[[0,0.5],[1,0.5]];portConstraint=eastwest;fontSize=16;strokeColor=inherit;" vertex="1" parent="IJf_oxvMi_yI0q4zsniB-81">
          <mxGeometry width="380" height="40" as="geometry" />
        </mxCell>
        <mxCell id="IJf_oxvMi_yI0q4zsniB-83" value="&lt;u&gt;Name&lt;/u&gt;" style="shape=partialRectangle;html=1;whiteSpace=wrap;connectable=0;fillColor=none;top=0;left=0;bottom=0;right=0;overflow=hidden;fontSize=12;strokeColor=inherit;" vertex="1" parent="IJf_oxvMi_yI0q4zsniB-82">
          <mxGeometry width="56" height="40" as="geometry">
            <mxRectangle width="56" height="40" as="alternateBounds" />
          </mxGeometry>
        </mxCell>
        <mxCell id="IJf_oxvMi_yI0q4zsniB-84" value="&lt;u&gt;DOB&lt;/u&gt;" style="shape=partialRectangle;html=1;whiteSpace=wrap;connectable=0;fillColor=none;top=0;left=0;bottom=0;right=0;overflow=hidden;fontSize=12;strokeColor=inherit;" vertex="1" parent="IJf_oxvMi_yI0q4zsniB-82">
          <mxGeometry x="56" width="114" height="40" as="geometry">
            <mxRectangle width="114" height="40" as="alternateBounds" />
          </mxGeometry>
        </mxCell>
        <mxCell id="IJf_oxvMi_yI0q4zsniB-85" value="Flight_Count" style="shape=partialRectangle;html=1;whiteSpace=wrap;connectable=0;fillColor=none;top=0;left=0;bottom=0;right=0;overflow=hidden;fontSize=12;strokeColor=inherit;" vertex="1" parent="IJf_oxvMi_yI0q4zsniB-82">
          <mxGeometry x="170" width="90" height="40" as="geometry">
            <mxRectangle width="90" height="40" as="alternateBounds" />
          </mxGeometry>
        </mxCell>
        <mxCell id="IJf_oxvMi_yI0q4zsniB-86" value="Years_of_Service" style="shape=partialRectangle;html=1;whiteSpace=wrap;connectable=0;fillColor=none;top=0;left=0;bottom=0;right=0;overflow=hidden;fontSize=12;strokeColor=inherit;" vertex="1" parent="IJf_oxvMi_yI0q4zsniB-82">
          <mxGeometry x="260" width="120" height="40" as="geometry">
            <mxRectangle width="120" height="40" as="alternateBounds" />
          </mxGeometry>
        </mxCell>
        <mxCell id="IJf_oxvMi_yI0q4zsniB-89" value="Planets" style="text;strokeColor=none;fillColor=none;html=1;fontSize=24;fontStyle=1;verticalAlign=middle;align=center;" vertex="1" parent="WIyWlLk6GJQsqaUBKTNV-1">
          <mxGeometry x="140" y="920" width="100" height="40" as="geometry" />
        </mxCell>
        <mxCell id="IJf_oxvMi_yI0q4zsniB-90" value="" style="shape=table;html=1;whiteSpace=wrap;startSize=0;container=1;collapsible=0;childLayout=tableLayout;columnLines=0;rowLines=0;fontSize=16;strokeColor=default;" vertex="1" parent="WIyWlLk6GJQsqaUBKTNV-1">
          <mxGeometry x="140" y="960" width="350" height="40" as="geometry" />
        </mxCell>
        <mxCell id="IJf_oxvMi_yI0q4zsniB-91" value="" style="shape=tableRow;horizontal=0;startSize=0;swimlaneHead=0;swimlaneBody=0;top=0;left=0;bottom=0;right=0;collapsible=0;dropTarget=0;fillColor=none;points=[[0,0.5],[1,0.5]];portConstraint=eastwest;fontSize=16;strokeColor=inherit;" vertex="1" parent="IJf_oxvMi_yI0q4zsniB-90">
          <mxGeometry width="350" height="40" as="geometry" />
        </mxCell>
        <mxCell id="IJf_oxvMi_yI0q4zsniB-92" value="&lt;u&gt;Planet Name&lt;/u&gt;" style="shape=partialRectangle;html=1;whiteSpace=wrap;connectable=0;fillColor=none;top=0;left=0;bottom=0;right=0;overflow=hidden;fontSize=12;strokeColor=inherit;" vertex="1" parent="IJf_oxvMi_yI0q4zsniB-91">
          <mxGeometry width="110" height="40" as="geometry">
            <mxRectangle width="110" height="40" as="alternateBounds" />
          </mxGeometry>
        </mxCell>
        <mxCell id="IJf_oxvMi_yI0q4zsniB-93" value="&lt;u&gt;Starship Name&lt;/u&gt;" style="shape=partialRectangle;html=1;whiteSpace=wrap;connectable=0;fillColor=none;top=0;left=0;bottom=0;right=0;overflow=hidden;fontSize=12;strokeColor=inherit;" vertex="1" parent="IJf_oxvMi_yI0q4zsniB-91">
          <mxGeometry x="110" width="120" height="40" as="geometry">
            <mxRectangle width="120" height="40" as="alternateBounds" />
          </mxGeometry>
        </mxCell>
        <mxCell id="IJf_oxvMi_yI0q4zsniB-94" value="Climate_Type" style="shape=partialRectangle;html=1;whiteSpace=wrap;connectable=0;fillColor=none;top=0;left=0;bottom=0;right=0;overflow=hidden;fontSize=12;strokeColor=inherit;" vertex="1" parent="IJf_oxvMi_yI0q4zsniB-91">
          <mxGeometry x="230" width="120" height="40" as="geometry">
            <mxRectangle width="120" height="40" as="alternateBounds" />
          </mxGeometry>
        </mxCell>
        <mxCell id="IJf_oxvMi_yI0q4zsniB-96" value="Trip" style="text;strokeColor=none;fillColor=none;html=1;fontSize=24;fontStyle=1;verticalAlign=middle;align=center;" vertex="1" parent="WIyWlLk6GJQsqaUBKTNV-1">
          <mxGeometry x="140" y="1060" width="100" height="40" as="geometry" />
        </mxCell>
        <mxCell id="IJf_oxvMi_yI0q4zsniB-97" value="" style="shape=table;html=1;whiteSpace=wrap;startSize=0;container=1;collapsible=0;childLayout=tableLayout;columnLines=0;rowLines=0;fontSize=16;strokeColor=default;" vertex="1" parent="WIyWlLk6GJQsqaUBKTNV-1">
          <mxGeometry x="140" y="1100" width="230" height="40" as="geometry" />
        </mxCell>
        <mxCell id="IJf_oxvMi_yI0q4zsniB-98" value="" style="shape=tableRow;horizontal=0;startSize=0;swimlaneHead=0;swimlaneBody=0;top=0;left=0;bottom=0;right=0;collapsible=0;dropTarget=0;fillColor=none;points=[[0,0.5],[1,0.5]];portConstraint=eastwest;fontSize=16;strokeColor=inherit;" vertex="1" parent="IJf_oxvMi_yI0q4zsniB-97">
          <mxGeometry width="230" height="40" as="geometry" />
        </mxCell>
        <mxCell id="IJf_oxvMi_yI0q4zsniB-99" value="&lt;u&gt;ID&lt;/u&gt;" style="shape=partialRectangle;html=1;whiteSpace=wrap;connectable=0;fillColor=none;top=0;left=0;bottom=0;right=0;overflow=hidden;fontSize=12;strokeColor=inherit;" vertex="1" parent="IJf_oxvMi_yI0q4zsniB-98">
          <mxGeometry width="110" height="40" as="geometry">
            <mxRectangle width="110" height="40" as="alternateBounds" />
          </mxGeometry>
        </mxCell>
        <mxCell id="IJf_oxvMi_yI0q4zsniB-100" value="departure_date" style="shape=partialRectangle;html=1;whiteSpace=wrap;connectable=0;fillColor=none;top=0;left=0;bottom=0;right=0;overflow=hidden;fontSize=12;strokeColor=inherit;" vertex="1" parent="IJf_oxvMi_yI0q4zsniB-98">
          <mxGeometry x="110" width="120" height="40" as="geometry">
            <mxRectangle width="120" height="40" as="alternateBounds" />
          </mxGeometry>
        </mxCell>
      </root>
    </mxGraphModel>
  </diagram>
</mxfile>
